# xmcd CD database file
#
# Track frame offsets:
#	192
#	23050
#	52402
#	71572
#	97977
#	123130
#	163825
#
# Disc length: 2448 seconds
#
# Revision: 1
# Processed by: cddbd v1.5.2PL0 Copyright (c) Steve Scherf et al.
# Submitted via: CDex 1.51
#
DISCID=5a098e07
DTITLE=Charlie Mariano - Cascade
DYEAR=1992
DGENRE=Jazz
TTITLE0=Suite of the Festival
TTITLE1=Harriet
TTITLE2=Quest
TTITLE3=Electric Funk Jungle
TTITLE4=Cascade
TTITLE5=Piece for Banjo and Kazoo
TTITLE6=Locus
EXTD=YEAR: 1992
EXTT0=
EXTT1=
EXTT2=
EXTT3=
EXTT4=
EXTT5=
EXTT6=
PLAYORDER=
